<mxfile host="app.diagrams.net" agent="Mozilla/5.0 (Windows NT 10.0; Win64; x64) AppleWebKit/537.36 (KHTML, like Gecko) Chrome/138.0.0.0 Safari/537.36" version="28.1.0">
  <diagram name="第 1 页" id="JPdeStbAm8y3OhEOB9Iq">
    <mxGraphModel dx="1426" dy="785" grid="1" gridSize="10" guides="1" tooltips="1" connect="1" arrows="1" fold="1" page="1" pageScale="1" pageWidth="827" pageHeight="1169" math="0" shadow="0">
      <root>
        <mxCell id="0" />
        <mxCell id="1" parent="0" />
        <mxCell id="2WYjeOn21mzfRFz2yffG-1" value="3" style="ellipse;whiteSpace=wrap;html=1;aspect=fixed;fillColor=#d5e8d4;strokeColor=#82b366;" vertex="1" parent="1">
          <mxGeometry x="200" y="80" width="40" height="40" as="geometry" />
        </mxCell>
        <mxCell id="2WYjeOn21mzfRFz2yffG-2" value="9" style="ellipse;whiteSpace=wrap;html=1;aspect=fixed;" vertex="1" parent="1">
          <mxGeometry x="140" y="140" width="40" height="40" as="geometry" />
        </mxCell>
        <mxCell id="2WYjeOn21mzfRFz2yffG-3" value="2" style="ellipse;whiteSpace=wrap;html=1;aspect=fixed;" vertex="1" parent="1">
          <mxGeometry x="260" y="140" width="40" height="40" as="geometry" />
        </mxCell>
        <mxCell id="2WYjeOn21mzfRFz2yffG-4" value="1" style="ellipse;whiteSpace=wrap;html=1;aspect=fixed;" vertex="1" parent="1">
          <mxGeometry x="230" y="210" width="40" height="40" as="geometry" />
        </mxCell>
        <mxCell id="2WYjeOn21mzfRFz2yffG-5" value="7" style="ellipse;whiteSpace=wrap;html=1;aspect=fixed;" vertex="1" parent="1">
          <mxGeometry x="300" y="210" width="40" height="40" as="geometry" />
        </mxCell>
        <mxCell id="2WYjeOn21mzfRFz2yffG-7" value="5" style="ellipse;whiteSpace=wrap;html=1;aspect=fixed;" vertex="1" parent="1">
          <mxGeometry x="170" y="210" width="40" height="40" as="geometry" />
        </mxCell>
        <mxCell id="2WYjeOn21mzfRFz2yffG-8" value="2" style="ellipse;whiteSpace=wrap;html=1;aspect=fixed;" vertex="1" parent="1">
          <mxGeometry x="100" y="210" width="40" height="40" as="geometry" />
        </mxCell>
        <mxCell id="2WYjeOn21mzfRFz2yffG-9" value="" style="endArrow=classic;html=1;rounded=0;entryX=1;entryY=0;entryDx=0;entryDy=0;" edge="1" parent="1" target="2WYjeOn21mzfRFz2yffG-2">
          <mxGeometry width="50" height="50" relative="1" as="geometry">
            <mxPoint x="205" y="110" as="sourcePoint" />
            <mxPoint x="175" y="160" as="targetPoint" />
          </mxGeometry>
        </mxCell>
        <mxCell id="2WYjeOn21mzfRFz2yffG-10" value="" style="endArrow=classic;html=1;rounded=0;" edge="1" parent="1">
          <mxGeometry width="50" height="50" relative="1" as="geometry">
            <mxPoint x="151" y="180" as="sourcePoint" />
            <mxPoint x="130" y="210" as="targetPoint" />
          </mxGeometry>
        </mxCell>
        <mxCell id="2WYjeOn21mzfRFz2yffG-11" value="" style="endArrow=classic;html=1;rounded=0;entryX=0.5;entryY=0;entryDx=0;entryDy=0;" edge="1" parent="1" target="2WYjeOn21mzfRFz2yffG-4">
          <mxGeometry width="50" height="50" relative="1" as="geometry">
            <mxPoint x="271" y="174" as="sourcePoint" />
            <mxPoint x="240" y="210" as="targetPoint" />
          </mxGeometry>
        </mxCell>
        <mxCell id="2WYjeOn21mzfRFz2yffG-13" value="" style="endArrow=classic;html=1;rounded=0;entryX=0;entryY=0;entryDx=0;entryDy=0;exitX=0.675;exitY=0.925;exitDx=0;exitDy=0;exitPerimeter=0;" edge="1" parent="1" source="2WYjeOn21mzfRFz2yffG-3" target="2WYjeOn21mzfRFz2yffG-5">
          <mxGeometry width="50" height="50" relative="1" as="geometry">
            <mxPoint x="291" y="210" as="sourcePoint" />
            <mxPoint x="270" y="246" as="targetPoint" />
          </mxGeometry>
        </mxCell>
        <mxCell id="2WYjeOn21mzfRFz2yffG-14" value="" style="endArrow=classic;html=1;rounded=0;entryX=0;entryY=0;entryDx=0;entryDy=0;exitX=0.75;exitY=0.75;exitDx=0;exitDy=0;exitPerimeter=0;" edge="1" parent="1" source="2WYjeOn21mzfRFz2yffG-1" target="2WYjeOn21mzfRFz2yffG-3">
          <mxGeometry width="50" height="50" relative="1" as="geometry">
            <mxPoint x="241" y="120" as="sourcePoint" />
            <mxPoint x="220" y="156" as="targetPoint" />
          </mxGeometry>
        </mxCell>
        <mxCell id="2WYjeOn21mzfRFz2yffG-15" value="" style="endArrow=classic;html=1;rounded=0;entryX=0.5;entryY=0;entryDx=0;entryDy=0;exitX=1;exitY=1;exitDx=0;exitDy=0;" edge="1" parent="1" source="2WYjeOn21mzfRFz2yffG-2" target="2WYjeOn21mzfRFz2yffG-7">
          <mxGeometry width="50" height="50" relative="1" as="geometry">
            <mxPoint x="211" y="190" as="sourcePoint" />
            <mxPoint x="190" y="226" as="targetPoint" />
          </mxGeometry>
        </mxCell>
        <mxCell id="2WYjeOn21mzfRFz2yffG-17" value="3" style="ellipse;whiteSpace=wrap;html=1;aspect=fixed;fillColor=#d5e8d4;strokeColor=#82b366;" vertex="1" parent="1">
          <mxGeometry x="190" y="280" width="40" height="40" as="geometry" />
        </mxCell>
        <mxCell id="2WYjeOn21mzfRFz2yffG-18" value="9" style="ellipse;whiteSpace=wrap;html=1;aspect=fixed;fillColor=#d5e8d4;strokeColor=#82b366;" vertex="1" parent="1">
          <mxGeometry x="130" y="340" width="40" height="40" as="geometry" />
        </mxCell>
        <mxCell id="2WYjeOn21mzfRFz2yffG-19" value="2" style="ellipse;whiteSpace=wrap;html=1;aspect=fixed;fillColor=#d5e8d4;strokeColor=#82b366;" vertex="1" parent="1">
          <mxGeometry x="250" y="340" width="40" height="40" as="geometry" />
        </mxCell>
        <mxCell id="2WYjeOn21mzfRFz2yffG-20" value="1" style="ellipse;whiteSpace=wrap;html=1;aspect=fixed;" vertex="1" parent="1">
          <mxGeometry x="220" y="410" width="40" height="40" as="geometry" />
        </mxCell>
        <mxCell id="2WYjeOn21mzfRFz2yffG-21" value="7" style="ellipse;whiteSpace=wrap;html=1;aspect=fixed;" vertex="1" parent="1">
          <mxGeometry x="290" y="410" width="40" height="40" as="geometry" />
        </mxCell>
        <mxCell id="2WYjeOn21mzfRFz2yffG-22" value="5" style="ellipse;whiteSpace=wrap;html=1;aspect=fixed;" vertex="1" parent="1">
          <mxGeometry x="160" y="410" width="40" height="40" as="geometry" />
        </mxCell>
        <mxCell id="2WYjeOn21mzfRFz2yffG-23" value="2" style="ellipse;whiteSpace=wrap;html=1;aspect=fixed;" vertex="1" parent="1">
          <mxGeometry x="90" y="410" width="40" height="40" as="geometry" />
        </mxCell>
        <mxCell id="2WYjeOn21mzfRFz2yffG-24" value="" style="endArrow=classic;html=1;rounded=0;entryX=1;entryY=0;entryDx=0;entryDy=0;" edge="1" parent="1" target="2WYjeOn21mzfRFz2yffG-18">
          <mxGeometry width="50" height="50" relative="1" as="geometry">
            <mxPoint x="195" y="310" as="sourcePoint" />
            <mxPoint x="165" y="360" as="targetPoint" />
          </mxGeometry>
        </mxCell>
        <mxCell id="2WYjeOn21mzfRFz2yffG-25" value="" style="endArrow=classic;html=1;rounded=0;" edge="1" parent="1">
          <mxGeometry width="50" height="50" relative="1" as="geometry">
            <mxPoint x="141" y="380" as="sourcePoint" />
            <mxPoint x="120" y="410" as="targetPoint" />
          </mxGeometry>
        </mxCell>
        <mxCell id="2WYjeOn21mzfRFz2yffG-26" value="" style="endArrow=classic;html=1;rounded=0;entryX=0.5;entryY=0;entryDx=0;entryDy=0;" edge="1" parent="1" target="2WYjeOn21mzfRFz2yffG-20">
          <mxGeometry width="50" height="50" relative="1" as="geometry">
            <mxPoint x="261" y="374" as="sourcePoint" />
            <mxPoint x="230" y="410" as="targetPoint" />
          </mxGeometry>
        </mxCell>
        <mxCell id="2WYjeOn21mzfRFz2yffG-27" value="" style="endArrow=classic;html=1;rounded=0;entryX=0;entryY=0;entryDx=0;entryDy=0;exitX=0.675;exitY=0.925;exitDx=0;exitDy=0;exitPerimeter=0;" edge="1" parent="1" source="2WYjeOn21mzfRFz2yffG-19" target="2WYjeOn21mzfRFz2yffG-21">
          <mxGeometry width="50" height="50" relative="1" as="geometry">
            <mxPoint x="281" y="410" as="sourcePoint" />
            <mxPoint x="260" y="446" as="targetPoint" />
          </mxGeometry>
        </mxCell>
        <mxCell id="2WYjeOn21mzfRFz2yffG-28" value="" style="endArrow=classic;html=1;rounded=0;entryX=0;entryY=0;entryDx=0;entryDy=0;exitX=0.75;exitY=0.75;exitDx=0;exitDy=0;exitPerimeter=0;" edge="1" parent="1" source="2WYjeOn21mzfRFz2yffG-17" target="2WYjeOn21mzfRFz2yffG-19">
          <mxGeometry width="50" height="50" relative="1" as="geometry">
            <mxPoint x="231" y="320" as="sourcePoint" />
            <mxPoint x="210" y="356" as="targetPoint" />
          </mxGeometry>
        </mxCell>
        <mxCell id="2WYjeOn21mzfRFz2yffG-29" value="" style="endArrow=classic;html=1;rounded=0;entryX=0.5;entryY=0;entryDx=0;entryDy=0;exitX=1;exitY=1;exitDx=0;exitDy=0;" edge="1" parent="1" source="2WYjeOn21mzfRFz2yffG-18" target="2WYjeOn21mzfRFz2yffG-22">
          <mxGeometry width="50" height="50" relative="1" as="geometry">
            <mxPoint x="201" y="390" as="sourcePoint" />
            <mxPoint x="180" y="426" as="targetPoint" />
          </mxGeometry>
        </mxCell>
        <mxCell id="2WYjeOn21mzfRFz2yffG-30" value="3" style="rounded=0;whiteSpace=wrap;html=1;" vertex="1" parent="1">
          <mxGeometry x="460" y="160" width="230" height="40" as="geometry" />
        </mxCell>
        <mxCell id="2WYjeOn21mzfRFz2yffG-31" value="queue" style="text;html=1;align=center;verticalAlign=middle;resizable=0;points=[];autosize=1;strokeColor=none;fillColor=none;" vertex="1" parent="1">
          <mxGeometry x="545" y="110" width="60" height="30" as="geometry" />
        </mxCell>
        <mxCell id="2WYjeOn21mzfRFz2yffG-33" value="2&lt;span style=&quot;white-space: pre;&quot;&gt;&#x9;&lt;/span&gt;9" style="rounded=0;whiteSpace=wrap;html=1;" vertex="1" parent="1">
          <mxGeometry x="460" y="370" width="230" height="40" as="geometry" />
        </mxCell>
        <mxCell id="2WYjeOn21mzfRFz2yffG-34" value="3" style="ellipse;whiteSpace=wrap;html=1;aspect=fixed;fillColor=#d5e8d4;strokeColor=#82b366;" vertex="1" parent="1">
          <mxGeometry x="190" y="550" width="40" height="40" as="geometry" />
        </mxCell>
        <mxCell id="2WYjeOn21mzfRFz2yffG-35" value="9" style="ellipse;whiteSpace=wrap;html=1;aspect=fixed;fillColor=#d5e8d4;strokeColor=#82b366;" vertex="1" parent="1">
          <mxGeometry x="130" y="610" width="40" height="40" as="geometry" />
        </mxCell>
        <mxCell id="2WYjeOn21mzfRFz2yffG-36" value="2" style="ellipse;whiteSpace=wrap;html=1;aspect=fixed;fillColor=#d5e8d4;strokeColor=#82b366;" vertex="1" parent="1">
          <mxGeometry x="250" y="610" width="40" height="40" as="geometry" />
        </mxCell>
        <mxCell id="2WYjeOn21mzfRFz2yffG-37" value="1" style="ellipse;whiteSpace=wrap;html=1;aspect=fixed;" vertex="1" parent="1">
          <mxGeometry x="220" y="680" width="40" height="40" as="geometry" />
        </mxCell>
        <mxCell id="2WYjeOn21mzfRFz2yffG-38" value="7" style="ellipse;whiteSpace=wrap;html=1;aspect=fixed;" vertex="1" parent="1">
          <mxGeometry x="290" y="680" width="40" height="40" as="geometry" />
        </mxCell>
        <mxCell id="2WYjeOn21mzfRFz2yffG-39" value="5" style="ellipse;whiteSpace=wrap;html=1;aspect=fixed;" vertex="1" parent="1">
          <mxGeometry x="160" y="680" width="40" height="40" as="geometry" />
        </mxCell>
        <mxCell id="2WYjeOn21mzfRFz2yffG-40" value="2" style="ellipse;whiteSpace=wrap;html=1;aspect=fixed;" vertex="1" parent="1">
          <mxGeometry x="90" y="680" width="40" height="40" as="geometry" />
        </mxCell>
        <mxCell id="2WYjeOn21mzfRFz2yffG-41" value="" style="endArrow=classic;html=1;rounded=0;entryX=1;entryY=0;entryDx=0;entryDy=0;" edge="1" parent="1" target="2WYjeOn21mzfRFz2yffG-35">
          <mxGeometry width="50" height="50" relative="1" as="geometry">
            <mxPoint x="195" y="580" as="sourcePoint" />
            <mxPoint x="165" y="630" as="targetPoint" />
          </mxGeometry>
        </mxCell>
        <mxCell id="2WYjeOn21mzfRFz2yffG-42" value="" style="endArrow=classic;html=1;rounded=0;" edge="1" parent="1">
          <mxGeometry width="50" height="50" relative="1" as="geometry">
            <mxPoint x="141" y="650" as="sourcePoint" />
            <mxPoint x="120" y="680" as="targetPoint" />
          </mxGeometry>
        </mxCell>
        <mxCell id="2WYjeOn21mzfRFz2yffG-43" value="" style="endArrow=classic;html=1;rounded=0;entryX=0.5;entryY=0;entryDx=0;entryDy=0;" edge="1" parent="1" target="2WYjeOn21mzfRFz2yffG-37">
          <mxGeometry width="50" height="50" relative="1" as="geometry">
            <mxPoint x="261" y="644" as="sourcePoint" />
            <mxPoint x="230" y="680" as="targetPoint" />
          </mxGeometry>
        </mxCell>
        <mxCell id="2WYjeOn21mzfRFz2yffG-44" value="" style="endArrow=classic;html=1;rounded=0;entryX=0;entryY=0;entryDx=0;entryDy=0;exitX=0.675;exitY=0.925;exitDx=0;exitDy=0;exitPerimeter=0;" edge="1" parent="1" source="2WYjeOn21mzfRFz2yffG-36" target="2WYjeOn21mzfRFz2yffG-38">
          <mxGeometry width="50" height="50" relative="1" as="geometry">
            <mxPoint x="281" y="680" as="sourcePoint" />
            <mxPoint x="260" y="716" as="targetPoint" />
          </mxGeometry>
        </mxCell>
        <mxCell id="2WYjeOn21mzfRFz2yffG-45" value="" style="endArrow=classic;html=1;rounded=0;entryX=0;entryY=0;entryDx=0;entryDy=0;exitX=0.75;exitY=0.75;exitDx=0;exitDy=0;exitPerimeter=0;" edge="1" parent="1" source="2WYjeOn21mzfRFz2yffG-34" target="2WYjeOn21mzfRFz2yffG-36">
          <mxGeometry width="50" height="50" relative="1" as="geometry">
            <mxPoint x="231" y="590" as="sourcePoint" />
            <mxPoint x="210" y="626" as="targetPoint" />
          </mxGeometry>
        </mxCell>
        <mxCell id="2WYjeOn21mzfRFz2yffG-46" value="" style="endArrow=classic;html=1;rounded=0;entryX=0.5;entryY=0;entryDx=0;entryDy=0;exitX=1;exitY=1;exitDx=0;exitDy=0;" edge="1" parent="1" source="2WYjeOn21mzfRFz2yffG-35" target="2WYjeOn21mzfRFz2yffG-39">
          <mxGeometry width="50" height="50" relative="1" as="geometry">
            <mxPoint x="201" y="660" as="sourcePoint" />
            <mxPoint x="180" y="696" as="targetPoint" />
          </mxGeometry>
        </mxCell>
        <mxCell id="2WYjeOn21mzfRFz2yffG-47" value="3" style="ellipse;whiteSpace=wrap;html=1;aspect=fixed;fillColor=#d5e8d4;strokeColor=#82b366;" vertex="1" parent="1">
          <mxGeometry x="190" y="800" width="40" height="40" as="geometry" />
        </mxCell>
        <mxCell id="2WYjeOn21mzfRFz2yffG-48" value="9" style="ellipse;whiteSpace=wrap;html=1;aspect=fixed;fillColor=#d5e8d4;strokeColor=#82b366;" vertex="1" parent="1">
          <mxGeometry x="130" y="860" width="40" height="40" as="geometry" />
        </mxCell>
        <mxCell id="2WYjeOn21mzfRFz2yffG-49" value="2" style="ellipse;whiteSpace=wrap;html=1;aspect=fixed;fillColor=#d5e8d4;strokeColor=#82b366;" vertex="1" parent="1">
          <mxGeometry x="250" y="860" width="40" height="40" as="geometry" />
        </mxCell>
        <mxCell id="2WYjeOn21mzfRFz2yffG-50" value="1" style="ellipse;whiteSpace=wrap;html=1;aspect=fixed;fillColor=#d5e8d4;strokeColor=#82b366;" vertex="1" parent="1">
          <mxGeometry x="220" y="930" width="40" height="40" as="geometry" />
        </mxCell>
        <mxCell id="2WYjeOn21mzfRFz2yffG-51" value="7" style="ellipse;whiteSpace=wrap;html=1;aspect=fixed;fillColor=#d5e8d4;strokeColor=#82b366;" vertex="1" parent="1">
          <mxGeometry x="290" y="930" width="40" height="40" as="geometry" />
        </mxCell>
        <mxCell id="2WYjeOn21mzfRFz2yffG-52" value="5" style="ellipse;whiteSpace=wrap;html=1;aspect=fixed;fillColor=#d5e8d4;strokeColor=#82b366;" vertex="1" parent="1">
          <mxGeometry x="160" y="930" width="40" height="40" as="geometry" />
        </mxCell>
        <mxCell id="2WYjeOn21mzfRFz2yffG-53" value="2" style="ellipse;whiteSpace=wrap;html=1;aspect=fixed;fillColor=#d5e8d4;strokeColor=#82b366;" vertex="1" parent="1">
          <mxGeometry x="90" y="930" width="40" height="40" as="geometry" />
        </mxCell>
        <mxCell id="2WYjeOn21mzfRFz2yffG-54" value="" style="endArrow=classic;html=1;rounded=0;entryX=1;entryY=0;entryDx=0;entryDy=0;" edge="1" parent="1" target="2WYjeOn21mzfRFz2yffG-48">
          <mxGeometry width="50" height="50" relative="1" as="geometry">
            <mxPoint x="195" y="830" as="sourcePoint" />
            <mxPoint x="165" y="880" as="targetPoint" />
          </mxGeometry>
        </mxCell>
        <mxCell id="2WYjeOn21mzfRFz2yffG-55" value="" style="endArrow=classic;html=1;rounded=0;" edge="1" parent="1">
          <mxGeometry width="50" height="50" relative="1" as="geometry">
            <mxPoint x="141" y="900" as="sourcePoint" />
            <mxPoint x="120" y="930" as="targetPoint" />
          </mxGeometry>
        </mxCell>
        <mxCell id="2WYjeOn21mzfRFz2yffG-56" value="" style="endArrow=classic;html=1;rounded=0;entryX=0.5;entryY=0;entryDx=0;entryDy=0;" edge="1" parent="1" target="2WYjeOn21mzfRFz2yffG-50">
          <mxGeometry width="50" height="50" relative="1" as="geometry">
            <mxPoint x="261" y="894" as="sourcePoint" />
            <mxPoint x="230" y="930" as="targetPoint" />
          </mxGeometry>
        </mxCell>
        <mxCell id="2WYjeOn21mzfRFz2yffG-57" value="" style="endArrow=classic;html=1;rounded=0;entryX=0;entryY=0;entryDx=0;entryDy=0;exitX=0.675;exitY=0.925;exitDx=0;exitDy=0;exitPerimeter=0;" edge="1" parent="1" source="2WYjeOn21mzfRFz2yffG-49" target="2WYjeOn21mzfRFz2yffG-51">
          <mxGeometry width="50" height="50" relative="1" as="geometry">
            <mxPoint x="281" y="930" as="sourcePoint" />
            <mxPoint x="260" y="966" as="targetPoint" />
          </mxGeometry>
        </mxCell>
        <mxCell id="2WYjeOn21mzfRFz2yffG-58" value="" style="endArrow=classic;html=1;rounded=0;entryX=0;entryY=0;entryDx=0;entryDy=0;exitX=0.75;exitY=0.75;exitDx=0;exitDy=0;exitPerimeter=0;" edge="1" parent="1" source="2WYjeOn21mzfRFz2yffG-47" target="2WYjeOn21mzfRFz2yffG-49">
          <mxGeometry width="50" height="50" relative="1" as="geometry">
            <mxPoint x="231" y="840" as="sourcePoint" />
            <mxPoint x="210" y="876" as="targetPoint" />
          </mxGeometry>
        </mxCell>
        <mxCell id="2WYjeOn21mzfRFz2yffG-59" value="" style="endArrow=classic;html=1;rounded=0;entryX=0.5;entryY=0;entryDx=0;entryDy=0;exitX=1;exitY=1;exitDx=0;exitDy=0;" edge="1" parent="1" source="2WYjeOn21mzfRFz2yffG-48" target="2WYjeOn21mzfRFz2yffG-52">
          <mxGeometry width="50" height="50" relative="1" as="geometry">
            <mxPoint x="201" y="910" as="sourcePoint" />
            <mxPoint x="180" y="946" as="targetPoint" />
          </mxGeometry>
        </mxCell>
        <mxCell id="2WYjeOn21mzfRFz2yffG-60" value="3" style="ellipse;whiteSpace=wrap;html=1;aspect=fixed;fillColor=#d5e8d4;strokeColor=#82b366;" vertex="1" parent="1">
          <mxGeometry x="190" y="1110" width="40" height="40" as="geometry" />
        </mxCell>
        <mxCell id="2WYjeOn21mzfRFz2yffG-61" value="9" style="ellipse;whiteSpace=wrap;html=1;aspect=fixed;fillColor=#d5e8d4;strokeColor=#82b366;" vertex="1" parent="1">
          <mxGeometry x="130" y="1170" width="40" height="40" as="geometry" />
        </mxCell>
        <mxCell id="2WYjeOn21mzfRFz2yffG-62" value="2" style="ellipse;whiteSpace=wrap;html=1;aspect=fixed;fillColor=#d5e8d4;strokeColor=#82b366;" vertex="1" parent="1">
          <mxGeometry x="250" y="1170" width="40" height="40" as="geometry" />
        </mxCell>
        <mxCell id="2WYjeOn21mzfRFz2yffG-63" value="1" style="ellipse;whiteSpace=wrap;html=1;aspect=fixed;fillColor=#d5e8d4;strokeColor=#82b366;" vertex="1" parent="1">
          <mxGeometry x="220" y="1240" width="40" height="40" as="geometry" />
        </mxCell>
        <mxCell id="2WYjeOn21mzfRFz2yffG-64" value="7" style="ellipse;whiteSpace=wrap;html=1;aspect=fixed;fillColor=#d5e8d4;strokeColor=#82b366;" vertex="1" parent="1">
          <mxGeometry x="290" y="1240" width="40" height="40" as="geometry" />
        </mxCell>
        <mxCell id="2WYjeOn21mzfRFz2yffG-65" value="5" style="ellipse;whiteSpace=wrap;html=1;aspect=fixed;fillColor=#d5e8d4;strokeColor=#82b366;" vertex="1" parent="1">
          <mxGeometry x="160" y="1240" width="40" height="40" as="geometry" />
        </mxCell>
        <mxCell id="2WYjeOn21mzfRFz2yffG-66" value="2" style="ellipse;whiteSpace=wrap;html=1;aspect=fixed;fillColor=#d5e8d4;strokeColor=#82b366;" vertex="1" parent="1">
          <mxGeometry x="90" y="1240" width="40" height="40" as="geometry" />
        </mxCell>
        <mxCell id="2WYjeOn21mzfRFz2yffG-67" value="" style="endArrow=classic;html=1;rounded=0;entryX=1;entryY=0;entryDx=0;entryDy=0;" edge="1" parent="1" target="2WYjeOn21mzfRFz2yffG-61">
          <mxGeometry width="50" height="50" relative="1" as="geometry">
            <mxPoint x="195" y="1140" as="sourcePoint" />
            <mxPoint x="165" y="1190" as="targetPoint" />
          </mxGeometry>
        </mxCell>
        <mxCell id="2WYjeOn21mzfRFz2yffG-68" value="" style="endArrow=classic;html=1;rounded=0;" edge="1" parent="1">
          <mxGeometry width="50" height="50" relative="1" as="geometry">
            <mxPoint x="141" y="1210" as="sourcePoint" />
            <mxPoint x="120" y="1240" as="targetPoint" />
          </mxGeometry>
        </mxCell>
        <mxCell id="2WYjeOn21mzfRFz2yffG-69" value="" style="endArrow=classic;html=1;rounded=0;entryX=0.5;entryY=0;entryDx=0;entryDy=0;" edge="1" parent="1" target="2WYjeOn21mzfRFz2yffG-63">
          <mxGeometry width="50" height="50" relative="1" as="geometry">
            <mxPoint x="261" y="1204" as="sourcePoint" />
            <mxPoint x="230" y="1240" as="targetPoint" />
          </mxGeometry>
        </mxCell>
        <mxCell id="2WYjeOn21mzfRFz2yffG-70" value="" style="endArrow=classic;html=1;rounded=0;entryX=0;entryY=0;entryDx=0;entryDy=0;exitX=0.675;exitY=0.925;exitDx=0;exitDy=0;exitPerimeter=0;" edge="1" parent="1" source="2WYjeOn21mzfRFz2yffG-62" target="2WYjeOn21mzfRFz2yffG-64">
          <mxGeometry width="50" height="50" relative="1" as="geometry">
            <mxPoint x="281" y="1240" as="sourcePoint" />
            <mxPoint x="260" y="1276" as="targetPoint" />
          </mxGeometry>
        </mxCell>
        <mxCell id="2WYjeOn21mzfRFz2yffG-71" value="" style="endArrow=classic;html=1;rounded=0;entryX=0;entryY=0;entryDx=0;entryDy=0;exitX=0.75;exitY=0.75;exitDx=0;exitDy=0;exitPerimeter=0;" edge="1" parent="1" source="2WYjeOn21mzfRFz2yffG-60" target="2WYjeOn21mzfRFz2yffG-62">
          <mxGeometry width="50" height="50" relative="1" as="geometry">
            <mxPoint x="231" y="1150" as="sourcePoint" />
            <mxPoint x="210" y="1186" as="targetPoint" />
          </mxGeometry>
        </mxCell>
        <mxCell id="2WYjeOn21mzfRFz2yffG-72" value="" style="endArrow=classic;html=1;rounded=0;entryX=0.5;entryY=0;entryDx=0;entryDy=0;exitX=1;exitY=1;exitDx=0;exitDy=0;" edge="1" parent="1" source="2WYjeOn21mzfRFz2yffG-61" target="2WYjeOn21mzfRFz2yffG-65">
          <mxGeometry width="50" height="50" relative="1" as="geometry">
            <mxPoint x="201" y="1220" as="sourcePoint" />
            <mxPoint x="180" y="1256" as="targetPoint" />
          </mxGeometry>
        </mxCell>
        <mxCell id="2WYjeOn21mzfRFz2yffG-112" value="3" style="ellipse;whiteSpace=wrap;html=1;aspect=fixed;" vertex="1" parent="1">
          <mxGeometry x="190" y="2338" width="40" height="40" as="geometry" />
        </mxCell>
        <mxCell id="2WYjeOn21mzfRFz2yffG-113" value="9" style="ellipse;whiteSpace=wrap;html=1;aspect=fixed;" vertex="1" parent="1">
          <mxGeometry x="130" y="2398" width="40" height="40" as="geometry" />
        </mxCell>
        <mxCell id="2WYjeOn21mzfRFz2yffG-114" value="2" style="ellipse;whiteSpace=wrap;html=1;aspect=fixed;" vertex="1" parent="1">
          <mxGeometry x="250" y="2398" width="40" height="40" as="geometry" />
        </mxCell>
        <mxCell id="2WYjeOn21mzfRFz2yffG-115" value="1" style="ellipse;whiteSpace=wrap;html=1;aspect=fixed;" vertex="1" parent="1">
          <mxGeometry x="220" y="2468" width="40" height="40" as="geometry" />
        </mxCell>
        <mxCell id="2WYjeOn21mzfRFz2yffG-116" value="7" style="ellipse;whiteSpace=wrap;html=1;aspect=fixed;" vertex="1" parent="1">
          <mxGeometry x="290" y="2468" width="40" height="40" as="geometry" />
        </mxCell>
        <mxCell id="2WYjeOn21mzfRFz2yffG-117" value="5" style="ellipse;whiteSpace=wrap;html=1;aspect=fixed;" vertex="1" parent="1">
          <mxGeometry x="160" y="2468" width="40" height="40" as="geometry" />
        </mxCell>
        <mxCell id="2WYjeOn21mzfRFz2yffG-118" value="2" style="ellipse;whiteSpace=wrap;html=1;aspect=fixed;" vertex="1" parent="1">
          <mxGeometry x="90" y="2468" width="40" height="40" as="geometry" />
        </mxCell>
        <mxCell id="2WYjeOn21mzfRFz2yffG-119" value="" style="endArrow=classic;html=1;rounded=0;entryX=1;entryY=0;entryDx=0;entryDy=0;" edge="1" parent="1" target="2WYjeOn21mzfRFz2yffG-113">
          <mxGeometry width="50" height="50" relative="1" as="geometry">
            <mxPoint x="195" y="2368" as="sourcePoint" />
            <mxPoint x="165" y="2418" as="targetPoint" />
          </mxGeometry>
        </mxCell>
        <mxCell id="2WYjeOn21mzfRFz2yffG-120" value="" style="endArrow=classic;html=1;rounded=0;" edge="1" parent="1">
          <mxGeometry width="50" height="50" relative="1" as="geometry">
            <mxPoint x="141" y="2438" as="sourcePoint" />
            <mxPoint x="120" y="2468" as="targetPoint" />
          </mxGeometry>
        </mxCell>
        <mxCell id="2WYjeOn21mzfRFz2yffG-121" value="" style="endArrow=classic;html=1;rounded=0;entryX=0.5;entryY=0;entryDx=0;entryDy=0;" edge="1" parent="1" target="2WYjeOn21mzfRFz2yffG-115">
          <mxGeometry width="50" height="50" relative="1" as="geometry">
            <mxPoint x="261" y="2432" as="sourcePoint" />
            <mxPoint x="230" y="2468" as="targetPoint" />
          </mxGeometry>
        </mxCell>
        <mxCell id="2WYjeOn21mzfRFz2yffG-122" value="" style="endArrow=classic;html=1;rounded=0;entryX=0;entryY=0;entryDx=0;entryDy=0;exitX=0.675;exitY=0.925;exitDx=0;exitDy=0;exitPerimeter=0;" edge="1" parent="1" source="2WYjeOn21mzfRFz2yffG-114" target="2WYjeOn21mzfRFz2yffG-116">
          <mxGeometry width="50" height="50" relative="1" as="geometry">
            <mxPoint x="281" y="2468" as="sourcePoint" />
            <mxPoint x="260" y="2504" as="targetPoint" />
          </mxGeometry>
        </mxCell>
        <mxCell id="2WYjeOn21mzfRFz2yffG-123" value="" style="endArrow=classic;html=1;rounded=0;entryX=0;entryY=0;entryDx=0;entryDy=0;exitX=0.75;exitY=0.75;exitDx=0;exitDy=0;exitPerimeter=0;" edge="1" parent="1" source="2WYjeOn21mzfRFz2yffG-112" target="2WYjeOn21mzfRFz2yffG-114">
          <mxGeometry width="50" height="50" relative="1" as="geometry">
            <mxPoint x="231" y="2378" as="sourcePoint" />
            <mxPoint x="210" y="2414" as="targetPoint" />
          </mxGeometry>
        </mxCell>
        <mxCell id="2WYjeOn21mzfRFz2yffG-124" value="" style="endArrow=classic;html=1;rounded=0;entryX=0.5;entryY=0;entryDx=0;entryDy=0;exitX=1;exitY=1;exitDx=0;exitDy=0;" edge="1" parent="1" source="2WYjeOn21mzfRFz2yffG-113" target="2WYjeOn21mzfRFz2yffG-117">
          <mxGeometry width="50" height="50" relative="1" as="geometry">
            <mxPoint x="201" y="2448" as="sourcePoint" />
            <mxPoint x="180" y="2484" as="targetPoint" />
          </mxGeometry>
        </mxCell>
        <mxCell id="2WYjeOn21mzfRFz2yffG-138" value="1&lt;span style=&quot;white-space: pre;&quot;&gt;&#x9;&lt;/span&gt;7&lt;span style=&quot;white-space: pre;&quot;&gt;&#x9;&lt;/span&gt;2" style="rounded=0;whiteSpace=wrap;html=1;" vertex="1" parent="1">
          <mxGeometry x="470" y="660" width="230" height="40" as="geometry" />
        </mxCell>
        <mxCell id="2WYjeOn21mzfRFz2yffG-139" value="1&lt;span style=&quot;white-space: pre;&quot;&gt;&#x9;&lt;/span&gt;7&amp;nbsp;&lt;span style=&quot;white-space: pre;&quot;&gt;&#x9;&lt;/span&gt;5&lt;span style=&quot;white-space: pre;&quot;&gt;&#x9;&lt;/span&gt;2" style="rounded=0;whiteSpace=wrap;html=1;" vertex="1" parent="1">
          <mxGeometry x="480" y="920" width="230" height="40" as="geometry" />
        </mxCell>
        <mxCell id="2WYjeOn21mzfRFz2yffG-140" value="" style="rounded=0;whiteSpace=wrap;html=1;" vertex="1" parent="1">
          <mxGeometry x="480" y="1169" width="230" height="40" as="geometry" />
        </mxCell>
        <mxCell id="2WYjeOn21mzfRFz2yffG-144" value="3" style="rounded=0;whiteSpace=wrap;html=1;" vertex="1" parent="1">
          <mxGeometry x="500" y="2410" width="230" height="40" as="geometry" />
        </mxCell>
        <mxCell id="2WYjeOn21mzfRFz2yffG-145" value="[]" style="whiteSpace=wrap;html=1;" vertex="1" parent="1">
          <mxGeometry x="460" y="230" width="220" height="30" as="geometry" />
        </mxCell>
        <mxCell id="2WYjeOn21mzfRFz2yffG-146" value="[3]&lt;span style=&quot;white-space: pre;&quot;&gt;&#x9;&lt;/span&gt;" style="whiteSpace=wrap;html=1;" vertex="1" parent="1">
          <mxGeometry x="460" y="430" width="220" height="30" as="geometry" />
        </mxCell>
        <mxCell id="2WYjeOn21mzfRFz2yffG-147" value="[3]&lt;span style=&quot;white-space: pre;&quot;&gt;&#x9;&lt;/span&gt;[9,]" style="whiteSpace=wrap;html=1;" vertex="1" parent="1">
          <mxGeometry x="470" y="720" width="220" height="30" as="geometry" />
        </mxCell>
        <mxCell id="2WYjeOn21mzfRFz2yffG-148" value="[3]&lt;span style=&quot;white-space: pre;&quot;&gt;&#x9;&lt;/span&gt;[9,2]" style="whiteSpace=wrap;html=1;" vertex="1" parent="1">
          <mxGeometry x="479" y="990" width="220" height="30" as="geometry" />
        </mxCell>
        <mxCell id="2WYjeOn21mzfRFz2yffG-150" value="[3]&lt;span style=&quot;white-space: pre;&quot;&gt;&#x9;&lt;/span&gt;[9,2] [2,5,7,1]" style="whiteSpace=wrap;html=1;" vertex="1" parent="1">
          <mxGeometry x="478" y="1230" width="220" height="30" as="geometry" />
        </mxCell>
      </root>
    </mxGraphModel>
  </diagram>
</mxfile>
